<mxfile host="65bd71144e">
    <diagram id="HIP3nbAZw_EuaXWnEj3U" name="Page-1">
        <mxGraphModel dx="737" dy="631" grid="1" gridSize="10" guides="1" tooltips="1" connect="1" arrows="1" fold="1" page="1" pageScale="1" pageWidth="850" pageHeight="1100" math="0" shadow="0">
            <root>
                <mxCell id="0"/>
                <mxCell id="1" parent="0"/>
                <mxCell id="7" value="http://ics2o.mths.ca" style="swimlane;whiteSpace=wrap;html=1;" parent="1" vertex="1">
                    <mxGeometry x="45" y="40" width="760" height="480" as="geometry"/>
                </mxCell>
                <mxCell id="8" value="&lt;font color=&quot;#ffeb3b&quot; style=&quot;font-size: 20px;&quot;&gt;CURRENT WEATHER&lt;/font&gt;" style="text;html=1;align=center;verticalAlign=middle;resizable=0;points=[];autosize=1;strokeColor=none;fillColor=none;" vertex="1" parent="7">
                    <mxGeometry x="95" y="235" width="220" height="40" as="geometry"/>
                </mxCell>
                <mxCell id="10" value="" style="rounded=1;whiteSpace=wrap;html=1;fontSize=20;fontColor=#ffffff;fillColor=#353E47;strokeColor=#314354;" vertex="1" parent="7">
                    <mxGeometry x="330" y="150" width="270" height="210" as="geometry"/>
                </mxCell>
                <mxCell id="11" value="&lt;font style=&quot;font-size: 17px;&quot;&gt;Description: light rain&lt;/font&gt;" style="text;html=1;align=center;verticalAlign=middle;resizable=0;points=[];autosize=1;strokeColor=none;fillColor=none;fontSize=20;fontColor=#00FFFF;" vertex="1" parent="7">
                    <mxGeometry x="375" y="160" width="180" height="40" as="geometry"/>
                </mxCell>
                <mxCell id="13" value="" style="shape=image;imageAspect=0;aspect=fixed;verticalLabelPosition=bottom;verticalAlign=top;fontSize=17;fontColor=#00FFFF;image=data:image/svg+xml,PHN2ZyB4bWxucz0iaHR0cDovL3d3dy53My5vcmcvMjAwMC9zdmciIHZpZXdCb3g9IjAgMCA1NiA1NiIgaGVpZ2h0PSI4MDBweCIgd2lkdGg9IjgwMHB4IiBmaWxsPSIjMDAwMDAwIj48cGF0aCBkPSJNIDM2LjA2MDcgOS4xNzkxIEMgMzYuOTI4NCA5LjE3OTEgMzcuNjYxNCA4LjQ0NjMgMzcuNjYxNCA3LjU3ODUgTCAzNy42NjE0IDMuNDEzMSBDIDM3LjY2MTQgMi41MjYwIDM2LjkyODQgMS44MTI4IDM2LjA2MDcgMS44MTI4IEMgMzUuMTczNiAxLjgxMjggMzQuNDQwOCAyLjUyNjAgMzQuNDQwOCAzLjQxMzEgTCAzNC40NDA4IDcuNTc4NSBDIDM0LjQ0MDggOC40NDYzIDM1LjE3MzYgOS4xNzkxIDM2LjA2MDcgOS4xNzkxIFogTSAyNC44NTY4IDEyLjkwMDggQyAyNS40OTMxIDEzLjUzNzIgMjYuNTUzOCAxMy41MTc5IDI3LjE1MTUgMTIuOTAwOCBDIDI3LjczMDEgMTIuMjgzNyAyNy43NDkzIDExLjI4MTAgMjcuMTUxNSAxMC42NjM5IEwgMjQuMTYyNiA3LjY3NDkgQyAyMy41NDU1IDcuMDU3OCAyMi41NDI3IDcuMDc3MSAyMS45MjU2IDcuNjc0OSBDIDIxLjMwODYgOC4yOTIwIDIxLjMwODYgOS4zMTQxIDIxLjkyNTYgOS45NTA0IFogTSA0NC45Njk2IDEyLjkwMDggQyA0NS41Njc1IDEzLjUxNzkgNDYuNjA4OSAxMy41MzcyIDQ3LjI0NTIgMTIuOTAwOCBMIDUwLjE3NjMgOS45NTA0IEMgNTAuNzkzNiA5LjMxNDEgNTAuNzkzNiA4LjI5MjAgNTAuMTc2MyA3LjY3NDkgQyA0OS41NTk1IDcuMDc3MSA0OC41NTYzIDcuMDU3OCA0Ny45Mzk0IDcuNjc0OSBMIDQ0Ljk2OTYgMTAuNjYzOSBDIDQ0LjM1MjcgMTEuMjgxMCA0NC4zNzIwIDEyLjI4MzcgNDQuOTY5NiAxMi45MDA4IFogTSA4LjE3NjMgNDAuNzQ2NiBMIDI5LjA0MTMgNDAuNzQ2NiBDIDM0LjYxNDMgNDAuNzQ2NiAzOC45MzM4IDM2LjU0MjcgMzguOTMzOCAzMS4xMDQ3IEMgMzguOTMzOCAzMS4wNDY4IDM4LjkzMzggMzAuOTg5MCAzOC45MzM4IDMwLjkzMTEgQyA0Mi44Mjk0IDI5LjY3NzcgNDUuNTg2OCAyNi4wNzE2IDQ1LjU4NjggMjEuODA5OSBDIDQ1LjU4NjggMTYuNTA2OSA0MS4zNDQ1IDEyLjI0NTIgMzYuMDYwNyAxMi4yNDUyIEMgMzEuNzYwNCAxMi4yNDUyIDI4LjE3MzYgMTUuMDQxMyAyNi45NTg3IDE4Ljg5ODAgQyAyNC42NDQ3IDE2LjI3NTUgMjEuNDA1MCAxNC43MzI4IDE3Ljc0MTEgMTQuNzMyOCBDIDExLjM1ODEgMTQuNzMyOCA2LjAxNjUgMTkuNjY5NCA1LjM4MDIgMjUuOTk0NSBDIDIuMTU5OCAyNi45OTcyIDAgMjkuNzkzNCAwIDMzLjI4MzcgQyAwIDM3LjY0MTkgMy4yNTkwIDQwLjc0NjYgOC4xNzYzIDQwLjc0NjYgWiBNIDM2LjA2MDcgMTUuMDc5OSBDIDM5LjgyMDggMTUuMDc5OSA0Mi43NTIwIDE4LjAzMDMgNDIuNzUyMCAyMS44MDk5IEMgNDIuNzUyMCAyNC43MDI1IDQxLjAxNjcgMjcuMTEyOSAzOC40NzEwIDI4LjExNTcgQyAzNy4yMzY4IDI0LjQxMzIgMzMuNzQ2NiAyMS44MjkyIDI5LjM0OTkgMjEuNTc4NSBDIDI5LjQ2NTYgMTcuODk1MyAzMi4zNzc1IDE1LjA3OTkgMzYuMDYwNyAxNS4wNzk5IFogTSA4LjA5OTIgMzcuNjYxMiBDIDQuODIxMCAzNy42NjEyIDMuMDg1NCAzNS43OTA2IDMuMDg1NCAzMy4zNjA5IEMgMy4wODU0IDMxLjMzNjEgNC4yODEwIDI5LjUyMzQgNy4xMTU3IDI4Ljc3MTMgQyA4LjA0MTMgMjguNTIwNyA4LjM4ODUgMjguMDk2NCA4LjQ2NTYgMjcuMTMyMiBDIDguOTA5MSAyMS43MTM1IDEyLjkyMDEgMTcuODE4MiAxNy43NDExIDE3LjgxODIgQyAyMS40ODIxIDE3LjgxODIgMjQuMzk0MCAxOS44ODE1IDI2LjE4NzMgMjMuNDg3NiBDIDI2LjU5MjMgMjQuMzE2OCAyNy4wNzQ0IDI0LjU4NjggMjguMDU3OSAyNC41ODY4IEMgMzMuMDMzMSAyNC41ODY4IDM1Ljg0ODUgMjcuNTk1MCAzNS44NDg1IDMxLjE4MTggQyAzNS44NDg1IDM0Ljc4NzkgMzIuOTE3NCAzNy42NjEyIDI5LjA5OTIgMzcuNjYxMiBaIE0gNTAuMjUzNCAyMy40MTA1IEwgNTQuNDE4NyAyMy40MTA1IEMgNTUuMjg2NCAyMy40MTA1IDU2LjAwMDAgMjIuNjk3MCA1Ni4wMDAwIDIxLjgwOTkgQyA1Ni4wMDAwIDIwLjkyMjkgNTUuMjg2NCAyMC4yMDkzIDU0LjQxODcgMjAuMjA5MyBMIDUwLjI1MzQgMjAuMjA5MyBDIDQ5LjM4NTcgMjAuMjA5MyA0OC42NTMxIDIwLjkyMjkgNDguNjUzMSAyMS44MDk5IEMgNDguNjUzMSAyMi42OTcwIDQ5LjM4NTcgMjMuNDEwNSA1MC4yNTM0IDIzLjQxMDUgWiBNIDQ3LjkzOTQgMzUuOTY0MiBDIDQ4LjU1NjMgMzYuNTgxMyA0OS41NTk1IDM2LjU2MjAgNTAuMTc2MyAzNS45NDQ5IEMgNTAuNzkzNiAzNS4zMjc4IDUwLjc5MzYgMzQuMzA1OCA1MC4xNzYzIDMzLjcwODAgTCA0Ny4yMDY1IDMwLjczODMgQyA0Ni41ODk2IDMwLjE0MDUgNDUuNTg2OCAzMC4xMjEyIDQ0Ljk2OTYgMzAuNzM4MyBDIDQ0LjM1MjcgMzEuMzU1NCA0NC4zNTI3IDMyLjM5NjcgNDQuOTY5NiAzMy4wMTM4IFogTSAyMy4xOTg0IDQ5Ljc5MDcgTCAyNS43MDUyIDQ1LjQzMjUgQyAyNi4wNTI0IDQ0LjgzNDcgMjUuODU5NSA0NC4xNTk4IDI1LjI4MTAgNDMuODMyMCBDIDI0LjcwMjUgNDMuNDg0OSAyNC4wNDY4IDQzLjY3NzcgMjMuNjk5NyA0NC4yNzU1IEwgMjEuMTczNiA0OC42NTI5IEMgMjAuODQ1NyA0OS4yMTIxIDIxLjAwMDAgNDkuODg3MSAyMS41OTc4IDUwLjIzNDIgQyAyMi4xNzYzIDUwLjU0MjcgMjIuODcwNSA1MC4zNDk5IDIzLjE5ODQgNDkuNzkwNyBaIE0gNy44NDg1IDQ5LjgwOTkgTCAxMC4zNTU0IDQ1LjQ1MTggQyAxMC43MjE4IDQ0Ljg1NDAgMTAuNTI4OSA0NC4xNzkxIDkuOTUwNCA0My44NTEyIEMgOS4zNzE5IDQzLjUwNDEgOC42OTcwIDQzLjY5NzAgOC4zNDk5IDQ0LjI5NDggTCA1LjgyMzcgNDguNjcyMiBDIDUuNDk1OSA0OS4yMzE0IDUuNjY5NCA0OS45MDY0IDYuMjY3MiA1MC4yNTM1IEMgNi44MjY1IDUwLjU2MjAgNy41MjA3IDUwLjM2OTEgNy44NDg1IDQ5LjgwOTkgWiBNIDI5LjIzNDIgNTUuMjA5NCBMIDMxLjc0MTEgNTAuODcwNiBDIDMyLjA4ODIgNTAuMjcyNyAzMS44OTU0IDQ5LjU5NzggMzEuMzE2OCA0OS4yNTA3IEMgMzAuNzM4MyA0OC45MjI5IDMwLjA4MjcgNDkuMTE1NyAyOS43MzU2IDQ5LjY5NDIgTCAyNy4xOTAxIDU0LjA5MDkgQyAyNi44ODE1IDU0LjYzMDkgMjcuMDM1OCA1NS4zMDU4IDI3LjYzMzYgNTUuNjUyOSBDIDI4LjIxMjIgNTUuOTgwNyAyOC45MDY0IDU1Ljc4NzkgMjkuMjM0MiA1NS4yMDk0IFogTSAxMy44ODQzIDU1LjIyODcgTCAxNi4zOTEyIDUwLjg4OTggQyAxNi43MzgzIDUwLjI5MjAgMTYuNTY0OCA0OS42MTcxIDE1Ljk4NjMgNDkuMjcwMCBDIDE1LjM4ODUgNDguOTQyMSAxNC43MzI4IDQ5LjEzNTAgMTQuMzg1NyA0OS43MTM1IEwgMTEuODU5NSA1NC4xMTAyIEMgMTEuNTMxNyA1NC42NTAyIDExLjcwNTIgNTUuMzI1MSAxMi4yODM4IDU1LjY3MjIgQyAxMi44NjIzIDU2IDEzLjU1NjUgNTUuODA3MiAxMy44ODQzIDU1LjIyODcgWiIvPjwvc3ZnPg==;" vertex="1" parent="7">
                    <mxGeometry x="420" y="210" width="90" height="90" as="geometry"/>
                </mxCell>
                <mxCell id="15" value="&lt;span style=&quot;color: rgb(255, 112, 67); font-family: Roboto, sans-serif;&quot;&gt;&lt;font style=&quot;font-size: 20px;&quot;&gt;Temperature: 17.65Â°C&lt;/font&gt;&lt;/span&gt;" style="text;html=1;align=center;verticalAlign=middle;resizable=0;points=[];autosize=1;strokeColor=none;fillColor=none;fontSize=17;fontColor=#00FFFF;" vertex="1" parent="7">
                    <mxGeometry x="355" y="310" width="220" height="40" as="geometry"/>
                </mxCell>
            </root>
        </mxGraphModel>
    </diagram>
</mxfile>